HIERARCHY
ROOT root
{
	OFFSET 0.000000 0.000000 0.000000
	CHANNELS 6 Xposition Yposition Zposition Zrotation Yrotation Xrotation
	JOINT lhip
	{
		OFFSET 0.058581 -0.082280 -0.017664
		CHANNELS 3 Zrotation Yrotation Xrotation
		JOINT lknee
		{
			OFFSET 0.043451 -0.386469 0.008037
			CHANNELS 3 Zrotation Yrotation Xrotation
			JOINT lankle
			{
				OFFSET -0.014790 -0.426874 -0.037428
				CHANNELS 3 Zrotation Yrotation Xrotation
				JOINT ltoe
				{
					OFFSET 0.041054 -0.060286 0.122042
					CHANNELS 3 Zrotation Yrotation Xrotation
					End Site
					{
						OFFSET 0.000000 0.000000 0.000000
					}
				}
			}
		}
	}
	JOINT rhip
	{
		OFFSET -0.060310 -0.090513 -0.013543
		CHANNELS 3 Zrotation Yrotation Xrotation
		JOINT rknee
		{
			OFFSET -0.043257 -0.383688 -0.004843
			CHANNELS 3 Zrotation Yrotation Xrotation
			JOINT rankle
			{
				OFFSET 0.019056 -0.420046 -0.034562
				CHANNELS 3 Zrotation Yrotation Xrotation
				JOINT rtoe
				{
					OFFSET -0.034840 -0.062106 0.130323
					CHANNELS 3 Zrotation Yrotation Xrotation
					End Site
					{
						OFFSET 0.000000 0.000000 0.000000
					}
				}
			}
		}
	}
	JOINT lowerback
	{
		OFFSET 0.004439 0.124404 -0.038385
		CHANNELS 3 Zrotation Yrotation Xrotation
		JOINT upperback
		{
			OFFSET 0.004488 0.137956 0.026820
			CHANNELS 3 Zrotation Yrotation Xrotation
			JOINT chest
			{
				OFFSET -0.002265 0.056032 0.002855
				CHANNELS 3 Zrotation Yrotation Xrotation
				JOINT lowerneck
				{
					OFFSET -0.013390 0.211636 -0.033468
					CHANNELS 3 Zrotation Yrotation Xrotation
					JOINT upperneck
					{
						OFFSET 0.010113 0.088937 0.050410
						CHANNELS 3 Zrotation Yrotation Xrotation
						End Site
						{
							OFFSET 0.000000 0.000000 0.000000
						}
					}
				}
				JOINT lclavicle
				{
					OFFSET 0.071702 0.114000 -0.018898
					CHANNELS 3 Zrotation Yrotation Xrotation
					JOINT lshoulder
					{
						OFFSET 0.122921 0.045205 -0.019046
						CHANNELS 3 Zrotation Yrotation Xrotation
						JOINT lelbow
						{
							OFFSET 0.255332 -0.015649 -0.022946
							CHANNELS 3 Zrotation Yrotation Xrotation
							JOINT lwrist
							{
								OFFSET 0.265709 0.012698 -0.007375
								CHANNELS 3 Zrotation Yrotation Xrotation
								End Site
								{
									OFFSET 0.000000 0.000000 0.000000
								}
							}
						}
					}
				}
				JOINT rclavicle
				{
					OFFSET -0.082954 0.112472 -0.023707
					CHANNELS 3 Zrotation Yrotation Xrotation
					JOINT rshoulder
					{
						OFFSET -0.113228 0.046853 -0.008472
						CHANNELS 3 Zrotation Yrotation Xrotation
						JOINT relbow
						{
							OFFSET -0.260127 -0.014369 -0.031269
							CHANNELS 3 Zrotation Yrotation Xrotation
							JOINT rwrist
							{
								OFFSET -0.269108 0.006794 -0.006027
								CHANNELS 3 Zrotation Yrotation Xrotation
								End Site
								{
									OFFSET 0.000000 0.000000 0.000000
								}
							}
						}
					}
				}
			}
		}
	}
}
MOTION
Frames: 17
Frame Time: 0.033333
1.132791 0.157166 0.996016 -83.631493 12.818393 73.651285 11.641203 1.753703 19.403431 -5.098763 -25.856599 11.637616 6.796152 13.422077 -22.657334 0.000000 -0.000000 0.000000 -7.025016 -4.684922 -41.321012 5.851623 -22.726149 71.903914 9.004420 -4.271805 -14.092113 0.000000 -0.000000 0.000000 -3.347953 -7.118548 15.776665 4.874876 -0.805664 6.990345 1.023090 -5.963119 7.857999 10.009052 -3.538109 7.605291 0.956225 -11.156606 12.607131 -25.809249 8.944166 3.494500 -55.231981 -7.356820 5.539337 8.607368 -28.593735 1.390226 -3.021395 1.149921 -6.872437 27.456708 -7.426475 -1.386783 57.913098 -1.702037 9.694705 -11.736401 29.023385 -4.596761 7.513060 -0.676928 -3.434414 
1.124073 0.158399 0.995507 -82.831386 13.643824 73.028146 12.629708 1.368023 20.210535 -5.139092 -26.373712 12.523331 6.510477 13.336827 -23.651979 0.000000 -0.000000 0.000000 -8.302643 -4.617640 -40.754619 6.352128 -21.449369 65.295603 8.798774 -5.626346 -12.593894 0.000000 -0.000000 0.000000 -3.295090 -7.164179 15.458305 4.831658 -0.888345 7.213175 1.181804 -5.980528 7.935873 9.926900 -4.294262 8.309584 1.225123 -11.265852 12.654873 -25.602717 9.369159 3.918222 -55.075113 -7.816598 5.424055 8.572295 -28.830588 1.759897 -2.751228 1.186687 -7.335014 27.524559 -7.800940 -1.243926 58.022192 -1.746004 9.762742 -11.639088 28.312704 -4.443525 7.317090 -1.096629 -3.209964 
1.114751 0.159482 0.994156 -81.787387 14.348038 72.849611 13.456441 0.938404 20.466616 -5.272654 -26.925008 13.703159 6.332878 13.047373 -24.718140 0.000000 -0.000000 0.000000 -9.440632 -4.780738 -39.495864 6.511386 -19.809878 57.897073 8.391535 -6.740912 -10.960406 0.000000 -0.000000 0.000000 -3.389427 -7.099010 14.938546 4.864341 -1.108517 6.986749 1.412727 -6.214111 8.051264 9.901931 -5.276734 9.026475 1.632404 -11.422671 12.574642 -25.399799 9.963335 4.355316 -54.898178 -8.127158 5.301427 8.319787 -28.848799 2.361160 -2.860607 0.927809 -8.002411 27.428814 -8.234982 -1.150943 58.040495 -1.997021 9.970589 -11.588194 27.964659 -4.247217 7.002591 -1.038186 -3.314343 
1.104904 0.160472 0.992146 -80.785941 14.771683 72.582072 13.871315 0.580853 20.736656 -5.308077 -27.217977 15.088064 6.287114 12.860489 -25.738183 0.000000 -0.000000 0.000000 -10.621669 -4.661826 -37.621392 6.857317 -17.644600 50.173337 8.405445 -7.742380 -6.398194 0.000000 -0.000000 0.000000 -3.399000 -6.871189 15.107494 4.619264 -1.250617 6.032035 1.471683 -6.637310 7.811484 9.543388 -6.027977 9.873012 2.034615 -10.846990 12.870839 -25.304281 10.670907 5.031834 -54.366435 -8.210197 5.004351 8.049930 -28.532743 2.904751 -2.649107 0.535420 -8.250527 27.361066 -9.130210 -1.096424 58.004399 -2.310909 10.281641 -11.268136 27.646209 -4.140981 6.431058 -1.040563 -3.319411 
1.094133 0.161966 0.989429 -80.076186 15.090646 72.465917 14.478287 0.388964 20.887149 -5.724561 -27.687337 16.522276 6.122567 12.608040 -26.842107 0.000000 -0.000000 0.000000 -11.494628 -4.528191 -35.836169 7.083222 -15.774795 43.265528 8.197605 -8.353610 -5.042215 0.000000 -0.000000 0.000000 -3.641703 -6.560200 14.147617 4.539560 -1.441501 6.139786 1.533324 -6.714635 7.890814 9.504387 -6.926781 10.516310 2.175694 -11.217940 13.011216 -25.053239 11.019203 5.427351 -53.916525 -8.348662 4.853805 7.741825 -27.984817 3.395207 -2.474612 0.455969 -8.299876 27.315597 -9.522489 -0.984805 58.021198 -2.634620 10.421496 -11.255863 27.538845 -3.913308 6.121789 -1.165154 -3.427943 
1.082993 0.163764 0.987044 -79.718294 15.307478 71.996702 15.009124 0.325413 21.557213 -5.872135 -27.765193 17.646814 5.689857 12.387611 -27.760225 0.000000 -0.000000 0.000000 -12.039778 -4.459677 -33.687779 6.744028 -14.500811 37.408427 8.285680 -8.801138 -4.847826 0.000000 -0.000000 0.000000 -3.797810 -6.182997 13.580766 4.242831 -1.531210 6.170863 1.505348 -6.636408 7.927431 9.336482 -7.145610 11.176543 2.495657 -11.063792 13.168659 -24.744426 11.279187 5.935289 -53.404626 -8.286086 4.553891 7.558948 -27.787747 3.717387 -2.322668 0.425297 -8.408237 27.274551 -9.761579 -0.822419 58.112401 -2.853910 10.243344 -11.212450 27.177947 -3.724301 5.869999 -1.274179 -3.580125 
1.071103 0.166891 0.984465 -79.620817 15.586431 71.559683 15.641269 0.166104 22.219627 -6.011961 -27.727765 18.942738 3.055335 11.817572 -30.468333 0.000000 -0.000000 0.000000 -12.175976 -4.090864 -31.883218 5.872556 -13.948547 32.726827 8.974585 -9.348827 -2.694317 0.000000 -0.000000 0.000000 -3.920000 -5.494677 12.170325 4.696184 -2.160797 8.640914 1.079809 -5.982217 6.674456 9.603568 -6.781956 12.680444 3.728051 -12.171784 10.750346 -24.454424 11.646326 5.404305 -52.590620 -8.520199 5.614360 6.066325 -26.205080 3.654624 0.584769 -0.819318 -10.933924 27.229846 -10.565879 -1.485753 58.377810 -3.223204 10.329689 -11.587370 26.643227 -3.015202 6.905008 -0.509404 -2.831638 
1.058942 0.171069 0.981238 -79.856287 15.581777 71.312235 16.205117 0.123566 22.895261 -6.483094 -27.812040 20.011295 2.901456 11.942194 -31.393317 0.000000 -0.000000 0.000000 -12.446744 -4.184153 -31.261428 5.993221 -13.364857 30.458591 9.486065 -9.222447 -1.181320 0.000000 -0.000000 0.000000 -4.239616 -5.272891 11.468785 4.493846 -1.891071 8.619848 0.990792 -5.808368 6.606784 9.539660 -7.222086 13.204793 3.756926 -12.188607 11.077019 -24.289395 12.084793 5.689737 -51.844341 -8.006936 5.204881 5.883813 -26.109441 3.721426 -0.297062 -0.661896 -10.793097 26.957443 -10.712218 -1.149888 58.288282 -3.687175 10.341539 -11.324376 26.708072 -2.488064 7.635989 -1.160620 -3.165010 
1.046930 0.175333 0.978244 -80.040694 15.695102 70.757597 16.666657 -0.063634 23.988654 -6.477845 -27.976100 20.773581 2.580508 12.338363 -32.031563 0.000000 -0.000000 0.000000 -12.438648 -4.180331 -30.404451 6.024090 -12.808492 29.156489 9.721610 -9.299894 -0.382144 0.000000 -0.000000 0.000000 -4.285568 -5.024629 11.396924 4.267219 -1.724625 8.763110 0.885747 -5.799504 6.513083 9.463601 -7.227678 13.715283 3.659816 -11.837762 11.096117 -24.391591 12.281340 5.759664 -50.901982 -7.569598 4.751687 5.644674 -25.939673 3.412242 0.019487 -0.800833 -10.209675 26.801217 -10.840671 -1.085450 58.020980 -4.038546 10.385566 -10.817392 26.848634 -2.131868 7.122036 -1.254436 -3.163140 
1.033746 0.180509 0.974545 -79.703308 15.895144 70.867152 17.287740 -0.449735 24.502888 -6.659577 -28.439911 21.472918 2.617081 12.882328 -33.045015 0.000000 -0.000000 0.000000 -12.672454 -4.389913 -30.064355 6.122646 -12.766896 28.814709 9.601260 -9.508598 0.311200 0.000000 -0.000000 0.000000 -4.514161 -5.271394 10.504478 4.237465 -1.823253 9.170028 0.904882 -5.836845 6.768337 9.421201 -6.916625 13.832890 3.800451 -11.322159 10.823512 -24.240334 12.524332 6.062549 -50.617926 -7.371561 4.486059 5.463972 -25.580046 3.640192 0.907586 -0.390243 -10.268471 26.673990 -10.933667 -0.882663 57.592190 -4.168982 10.333651 -10.521148 26.953055 -1.921238 5.856014 -1.388991 -3.168616 
1.021661 0.186260 0.970319 -79.373572 16.095773 71.034978 17.731771 -0.895795 24.940931 -6.492837 -28.745534 22.063965 2.557529 13.427525 -34.088088 0.000000 -0.000000 0.000000 -12.841830 -4.658379 -30.291677 6.348485 -12.825186 29.516040 10.225212 -9.595573 1.311358 0.000000 -0.000000 0.000000 -4.558655 -5.304351 10.578894 4.310486 -1.993078 8.834085 1.049635 -5.913134 6.554475 9.254269 -7.094570 14.218576 3.733972 -11.263087 11.000228 -24.085897 12.682388 6.258351 -50.498883 -7.183085 4.213431 5.119151 -25.045745 3.935968 0.416956 -0.272369 -9.748355 26.510829 -11.369594 -0.945179 57.011254 -4.573922 9.819621 -10.678521 26.715284 -2.077398 6.164984 -0.703827 -2.431250 
1.008415 0.192595 0.966342 -79.087829 16.208479 71.305016 18.407164 -1.377064 25.691242 -6.419206 -29.046496 21.884844 2.531120 13.765865 -35.150708 0.000000 -0.000000 0.000000 -13.041759 -4.465662 -30.421032 6.735489 -12.784822 30.019695 10.796043 -9.333646 2.004750 0.000000 -0.000000 0.000000 -4.641691 -5.526199 10.231015 4.436613 -2.005188 8.952692 0.968872 -6.115731 6.642153 9.783742 -7.149917 14.197094 3.873945 -11.224866 10.906886 -24.118518 12.798566 6.330474 -50.057048 -7.195801 4.219003 4.647515 -24.536201 3.811360 0.827918 -0.982723 -9.878199 26.532123 -11.803732 -1.067319 56.591847 -4.862671 9.737728 -10.779055 26.489573 -2.554549 5.327588 -0.709587 -2.711957 
0.995869 0.198988 0.961874 -78.829275 16.158494 71.794517 18.880461 -1.476374 26.024220 -6.319485 -29.690211 22.130608 2.531396 14.076271 -36.089045 0.000000 -0.000000 0.000000 -13.241956 -4.442766 -31.088891 7.136082 -12.845948 30.988407 11.242331 -8.997524 2.205613 0.000000 -0.000000 0.000000 -4.706858 -5.752945 10.279031 4.579927 -2.198905 8.842144 1.084377 -6.246282 6.585455 9.794992 -7.111559 14.234085 3.732920 -11.197376 10.754403 -24.388899 12.846159 6.344032 -49.802448 -7.314505 4.085924 4.499447 -24.367505 3.717328 0.748619 -1.003398 -9.400134 26.493305 -11.979003 -1.020825 56.027582 -5.121747 9.442162 -10.823692 26.226933 -2.905773 5.080115 -0.916786 -2.491321 
0.982491 0.206378 0.957003 -78.804711 15.967110 72.659728 19.021224 -1.940700 26.111651 -6.211749 -29.727206 22.219426 2.553388 14.856623 -36.899070 0.000000 -0.000000 0.000000 -13.452943 -4.445863 -32.410521 7.663645 -13.317212 32.118563 11.757656 -8.711359 2.991837 0.000000 -0.000000 0.000000 -4.494089 -6.003842 10.069359 4.705438 -2.135743 8.592826 1.041119 -6.424525 6.617701 9.823763 -7.111145 14.318827 3.619713 -11.069411 10.773174 -24.485088 12.966025 6.195561 -49.682517 -7.456504 4.258752 4.306903 -24.372088 3.639541 0.664497 -1.006372 -9.063625 26.470284 -12.468457 -1.225039 55.460275 -5.577005 9.402242 -10.644110 25.956261 -3.136164 5.055313 -0.831260 -2.423178 
0.968234 0.213924 0.952548 -78.637454 15.788811 73.290118 19.510109 -1.984064 26.579357 -5.896349 -29.932896 21.958448 2.937450 15.424713 -37.197131 0.000000 -0.000000 0.000000 -13.530956 -4.557993 -32.985221 8.121083 -13.430656 32.580230 12.526826 -7.994636 4.247606 0.000000 -0.000000 0.000000 -4.215215 -6.454376 10.314524 4.844945 -2.220154 8.631707 1.145454 -6.583971 6.451280 9.603956 -7.221316 14.179874 3.520528 -10.588702 10.773218 -24.611945 12.840048 6.376222 -49.845581 -7.615364 4.255940 4.333698 -24.934561 3.756511 0.833134 -0.625270 -8.979982 26.357525 -12.684735 -1.059745 54.980181 -5.876869 8.927369 -10.474753 25.624979 -3.267141 4.767222 -0.792061 -2.036750 
0.953692 0.221218 0.947396 -78.168573 15.367334 74.391627 19.689382 -2.221181 26.435326 -5.837937 -30.113344 22.018807 3.281239 15.666524 -37.922105 0.000000 -0.000000 0.000000 -13.951872 -4.675332 -34.082207 8.542836 -13.521431 33.443877 12.986648 -7.729451 5.244501 0.000000 -0.000000 0.000000 -3.870368 -7.059916 10.544096 4.995296 -2.418340 8.325388 1.203438 -6.926154 6.520070 9.338562 -6.898889 14.099522 3.229986 -9.957009 10.589374 -24.819754 12.861159 6.355870 -49.863871 -8.041329 4.392475 4.259790 -25.366244 3.932104 0.312768 -1.158922 -8.731386 26.183913 -13.106770 -1.145724 54.383450 -6.130123 8.800396 -10.093231 25.218225 -3.268753 5.102357 -0.902523 -1.510497 
0.938220 0.229377 0.941854 -78.005786 14.597847 75.655776 19.536968 -2.234021 26.286095 -5.786481 -30.186759 22.051759 3.447628 16.162433 -38.403419 0.000000 -0.000000 0.000000 -14.275171 -5.049018 -35.764899 9.177734 -13.112718 35.021854 14.189384 -7.001008 7.962219 0.000000 -0.000000 0.000000 -3.475178 -7.402231 10.632035 5.183245 -2.483166 8.046717 1.178799 -7.069685 6.730080 9.272055 -6.749868 13.482709 3.205193 -9.530207 10.261091 -24.885723 12.668552 5.992208 -49.906902 -8.620276 4.737450 3.722096 -25.789743 4.282332 0.636808 -1.365899 -8.577246 26.154643 -13.683090 -1.330661 54.097922 -6.427150 8.737257 -10.013050 24.750686 -3.354675 4.237106 -1.097718 -0.415564 
